# xmcd CD database file
#
# Track frame offsets:
#	150
#	22853
#	44570
#	74230
#	94738
#	117288
#	139274
#	158858
#	169584
#	202053
#	230015
#	259763
#
# Disc length: 3725 seconds
#
# Revision: 0
# Processed by: cddbd v1.5.2PL0 Copyright (c) Steve Scherf et al.
# Submitted via: CDex 1.51
#
DISCID=af0e8b0c
DTITLE=Laura Littardi - Inner Dance
DYEAR=2009
DGENRE=Jazz
TTITLE0=Sunny Days
TTITLE1=Old Man
TTITLE2=Hold The Line
TTITLE3=Another Star
TTITLE4=Lotta Love
TTITLE5=Higher Ground
TTITLE6=Carried Away
TTITLE7=Beautiful Flower
TTITLE8=Isn't She Lovely
TTITLE9=Proud Mary
TTITLE10=I'm Praying
TTITLE11=Sunny Days (alt.)
EXTD=YEAR: 2009
EXTT0=
EXTT1=
EXTT2=
EXTT3=
EXTT4=
EXTT5=
EXTT6=
EXTT7=
EXTT8=
EXTT9=
EXTT10=
EXTT11=
PLAYORDER=
